# xmcd CD database file
#
# Track frame offsets:
#	150
#	43057
#	77350
#	93277
#	111075
#	132837
#	164227
#	180057
#	210947
#	241737
#	265242
#	293807
#
# Disc length: 4397 seconds
#
# Revision: 1
# Processed by: cddbd v1.5.2PL0 Copyright (c) Steve Scherf et al.
# Submitted via: CDex 1.51
#
DISCID=95112b0c
DTITLE=Harry Edison - Vol. 174 - Harry 'Sweets' Edison
DYEAR=1964
DGENRE=Jazz
TTITLE0=Blues For Bill Basie
TTITLE1=Blues For Piney Brown
TTITLE2=K.M. Blues
TTITLE3=Moonlight In Vermont
TTITLE4=Blues For The Blues
TTITLE5=Taste On The Place
TTITLE6=Gee Baby Ain't I Good To You
TTITLE7=You're Getting To Be A Habbit With Me
TTITLE8=Weary Blues
TTITLE9=Royal Garden Blues
TTITLE10=Wabash Blues
TTITLE11=Basin Street Blues
EXTD=YEAR: 1964
EXTT0=
EXTT1=
EXTT2=
EXTT3=
EXTT4=
EXTT5=
EXTT6=
EXTT7=
EXTT8=
EXTT9=
EXTT10=
EXTT11=
PLAYORDER=
